<svg width="166" height="57" viewBox="0 0 166 57" fill="none" xmlns="http://www.w3.org/2000/svg">
<path d="M44.343 15.7638C43.3398 14.0082 41.9604 12.6706 40.2466 11.7092C38.5328 10.7896 36.5682 10.288 34.3946 10.288C32.221 10.288 30.2564 10.7478 28.5008 11.7092C26.7452 12.6706 25.3658 14.0082 24.3626 15.7638C23.3594 17.5194 22.8578 19.6094 22.8578 21.992C22.8578 24.4164 23.3176 26.5064 24.279 28.262C25.1986 30.0594 26.5362 31.4388 28.2918 32.4002C30.0056 33.3616 32.0538 33.8632 34.3946 33.8632C35.565 33.8632 36.9862 33.6542 37.6132 33.5288C37.5714 33.487 37.5714 33.4452 37.5296 33.4034L34.6454 26.7154L31.0506 30.1012C30.9252 30.2266 30.7162 30.2684 30.5072 30.1848C30.34 30.1012 30.2146 29.934 30.2146 29.725V13.3812C30.2146 13.1722 30.34 13.005 30.5072 12.9214C30.6744 12.8378 30.8834 12.8796 31.0506 13.005L42.9218 24.1238C43.0472 24.2492 43.1308 24.4582 43.0472 24.6672C42.9636 24.8344 42.7964 25.0016 42.6292 25.0016L37.5714 25.4196L40.581 32.024C40.6646 32.1912 40.6228 32.1494 40.7064 32.2748C42.3366 31.3134 43.507 30.0594 44.4266 28.3456C45.3462 26.59 45.8478 24.4582 45.8478 22.0338C45.8478 19.6094 45.3462 17.5194 44.343 15.7638Z" fill="url(#paint0_linear_49_66)"/>
<path d="M34.3946 34.4066C31.9702 34.4066 29.8384 33.905 28.041 32.86C26.2018 31.8568 24.7806 30.3938 23.8192 28.5128C22.8578 26.7154 22.3562 24.5418 22.3562 21.992C22.3562 19.5258 22.8996 17.3522 23.9446 15.513C24.9896 13.7156 26.4526 12.2526 28.2918 11.2494C30.0892 10.2462 32.1792 9.7446 34.4364 9.7446C36.6518 9.7446 38.7 10.2462 40.5392 11.2076C42.3784 12.2526 43.7996 13.6738 44.8446 15.4712C45.8896 17.3104 46.433 19.484 46.433 21.992C46.433 24.4582 45.9314 26.6736 44.97 28.5546C44.0086 30.3938 42.7546 31.6896 41.0408 32.6928C40.79 32.8182 40.4974 32.7764 40.3302 32.5256C40.2884 32.442 40.2466 32.4002 40.2048 32.3166C40.2048 32.3166 40.2048 32.2748 40.163 32.233L37.1534 25.6286C37.0698 25.4614 37.1116 25.2942 37.1952 25.127C37.2788 24.9598 37.446 24.8762 37.6132 24.8762L42.6292 24.4582L30.758 13.423V29.6832L34.311 26.3392C34.4364 26.2138 34.6036 26.172 34.7708 26.2138C34.938 26.2556 35.0634 26.381 35.147 26.5064L37.9894 33.1526C37.9894 33.1944 38.0312 33.1944 38.0312 33.2362C38.1148 33.3616 38.1566 33.5288 38.1148 33.696C38.073 33.8632 37.9058 34.0304 37.6968 34.0722C37.028 34.1976 35.565 34.4066 34.3946 34.4066ZM34.3946 10.7896C32.3046 10.7896 30.3818 11.2494 28.7516 12.1272C27.0378 13.0468 25.7838 14.3008 24.8224 15.9728C23.861 17.6448 23.4012 19.6512 23.4012 21.9502C23.4012 24.3328 23.861 26.2974 24.7388 27.9694C25.6166 29.6832 26.8706 30.979 28.5426 31.8986C30.2146 32.8182 32.1792 33.278 34.3946 33.278C35.1888 33.278 36.1502 33.1944 36.8608 33.069L34.4782 27.5514L31.4268 30.4356C31.176 30.6864 30.7162 30.77 30.34 30.6028H30.2982C29.922 30.4356 29.713 30.0594 29.713 29.6832V13.3394C29.713 12.9632 29.922 12.587 30.2982 12.4198C30.6326 12.2526 31.0506 12.2944 31.385 12.5452L31.4268 12.587L43.298 23.7058C43.5906 23.9984 43.716 24.4582 43.5488 24.8344V24.8762C43.4234 25.1688 43.089 25.5032 42.671 25.5032L38.3656 25.8794L40.9154 31.5224C42.2112 30.6446 43.1726 29.5578 43.9668 28.0948C44.8864 26.381 45.3462 24.3328 45.3462 22.0338C45.3462 19.693 44.8446 17.6866 43.925 16.0146C43.0054 14.3844 41.6678 13.0886 40.0376 12.169C38.3238 11.2494 36.4428 10.7896 34.3946 10.7896Z" fill="#0B1A19"/>
<path d="M53.4536 33.9364C51.9488 33.9364 50.5694 33.7692 49.399 33.393C48.1868 33.0586 47.1 32.5988 46.055 32.0554L46.0968 26.5378H46.5566L48.145 29.2966C48.8138 30.5088 49.5662 31.4284 50.4022 32.0554C51.2382 32.6406 52.2414 32.9332 53.5372 32.9332C55.0002 32.9332 56.2124 32.5988 57.132 31.93C58.0516 31.2612 58.5114 30.3834 58.5114 29.2548C58.5114 28.2516 58.177 27.4156 57.55 26.7468C56.923 26.078 55.7108 25.4928 53.9552 24.9912L52.0324 24.406C50.1514 23.8626 48.6884 22.9848 47.6016 21.8144C46.5148 20.644 45.9714 19.2228 45.9714 17.509C45.9714 15.4608 46.7656 13.747 48.3958 12.3258C49.9842 10.9046 52.2832 10.194 55.2928 10.194C56.505 10.194 57.6336 10.3194 58.6786 10.5702C59.7236 10.821 60.7686 11.239 61.7718 11.7406L61.4792 16.7566H61.0194L59.3892 13.8724C58.804 12.8692 58.2188 12.1168 57.6754 11.7406C57.0902 11.3226 56.2542 11.1136 55.1256 11.1136C54.0806 11.1136 53.0774 11.4062 52.1578 11.9914C51.2382 12.5766 50.7784 13.4126 50.7784 14.4994C50.7784 15.5444 51.1546 16.3804 51.9488 17.0074C52.743 17.6344 53.9134 18.1778 55.46 18.7212L57.55 19.3064C59.7654 19.9752 61.3538 20.9366 62.3152 22.107C63.2766 23.2774 63.7364 24.6986 63.7364 26.3706C63.7364 28.6278 62.8586 30.4252 61.0612 31.7628C59.1384 33.2676 56.6722 33.9364 53.4536 33.9364Z" fill="#0B1A19"/>
<path d="M71.2294 33.9364C69.2648 33.9364 67.7182 33.4348 66.6314 32.4734C65.5446 31.4702 65.0012 29.9236 65.0012 27.75V11.9078H61.8244V11.448L62.9112 11.239C63.8726 11.03 64.7086 10.7374 65.3774 10.3194C66.088 9.90142 66.7568 9.35802 67.4256 8.68922L71.2294 4.50922H71.6892L71.5638 10.9882H76.747V11.9078H71.522V28.586C71.522 29.6728 71.7728 30.467 72.2326 31.0522C72.7342 31.5956 73.3194 31.8882 74.0718 31.8882C74.7406 31.8882 75.284 31.721 75.7856 31.3866C76.2872 31.0522 76.7888 30.6342 77.2486 30.0908L77.7084 30.5506C77.0814 31.5956 76.2454 32.4316 75.1586 33.0586C74.1136 33.6438 72.776 33.9364 71.2294 33.9364Z" fill="#0B1A19"/>
<path d="M92.0058 34.0618C88.9962 34.0618 86.321 33.4348 83.8966 32.2226C81.4722 31.0104 79.5494 29.213 78.1282 26.7886C76.707 24.406 75.9964 21.48 75.9964 17.9688C75.9964 15.3354 76.4144 12.9946 77.2922 10.9882C78.17 8.98182 79.3404 7.30982 80.8452 5.93042C82.35 4.55102 84.0638 3.54782 86.0284 2.87902C87.993 2.21022 90.0412 1.87582 92.2566 1.87582C94.0122 1.87582 95.6424 2.08482 97.1054 2.46102C98.5684 2.87902 99.9896 3.42242 101.285 4.13302L101.453 9.81782H100.993L98.6938 6.09762C98.4012 5.51242 98.025 4.96902 97.6906 4.50922C97.3144 4.00762 96.8546 3.67322 96.3112 3.42242C95.8514 3.21342 95.3916 3.04622 94.9736 2.92082C94.5138 2.79542 93.9704 2.75362 93.3016 2.75362C91.5042 2.75362 89.874 3.21342 88.411 4.17482C86.948 5.13622 85.7776 6.72462 84.8998 8.94002C84.022 11.1554 83.604 14.165 83.604 17.9688C83.604 21.7726 84.022 24.7404 84.858 26.9558C85.694 29.1712 86.8226 30.7178 88.2438 31.6792C89.665 32.5988 91.2952 33.1004 93.0926 33.1004C94.0958 33.1004 94.8482 33.0168 95.4334 32.8914C96.0186 32.766 96.6038 32.557 97.189 32.2644C97.7742 32.0136 98.234 31.6374 98.5266 31.1776C98.8192 30.7178 99.1118 30.1744 99.3626 29.631L101.411 25.1166H101.871L101.745 31.721C100.449 32.3898 98.9864 32.975 97.398 33.393C95.6842 33.8528 93.9286 34.0618 92.0058 34.0618Z" fill="#0B1A19"/>
<path d="M100.901 33.2258V32.766L101.444 32.5988C102.573 32.2226 103.116 31.4702 103.116 30.2998V5.55421C103.116 4.92721 102.991 4.46741 102.74 4.13301C102.489 3.79861 102.071 3.54781 101.444 3.42241L100.859 3.29701V2.83721L109.303 0.830811L109.846 1.24881L109.679 7.72781V23.57C109.679 24.6986 109.679 25.8272 109.721 26.9558C109.721 28.0844 109.762 29.213 109.762 30.2998C109.762 30.9268 109.888 31.4284 110.139 31.8046C110.389 32.1808 110.807 32.4734 111.393 32.6406L111.978 32.766V33.2258H100.901Z" fill="#0B1A19"/>
<path d="M116.359 7.89502C115.314 7.89502 114.437 7.56062 113.684 6.89182C112.974 6.22302 112.597 5.38702 112.597 4.38382C112.597 3.33882 112.974 2.50282 113.684 1.83402C114.395 1.16522 115.314 0.87262 116.359 0.87262C117.404 0.87262 118.282 1.20702 118.993 1.83402C119.703 2.46102 120.038 3.33882 120.038 4.38382C120.038 5.38702 119.703 6.22302 118.993 6.89182C118.282 7.56062 117.404 7.89502 116.359 7.89502ZM110.925 33.2258V32.766L111.552 32.5988C112.179 32.4316 112.597 32.139 112.806 31.7628C113.057 31.3866 113.141 30.885 113.141 30.2998V15.7952C113.141 15.1264 113.015 14.6666 112.806 14.3322C112.556 13.9978 112.138 13.7888 111.552 13.6634L110.925 13.538V13.0782L119.369 10.3612L119.829 10.821L119.703 17.3836V30.3416C119.703 30.9686 119.829 31.4702 120.038 31.8464C120.289 32.2226 120.665 32.4734 121.25 32.6824L121.71 32.8078V33.2676L110.925 33.2258Z" fill="#0B1A19"/>
<path d="M132.07 33.9364C129.98 33.9364 128.057 33.4766 126.343 32.557C124.629 31.6374 123.292 30.2998 122.289 28.586C121.285 26.8304 120.784 24.6986 120.784 22.1906C120.784 19.6826 121.327 17.5508 122.414 15.7952C123.501 14.0396 124.964 12.6602 126.803 11.7406C128.642 10.821 130.649 10.3194 132.822 10.3194C134.62 10.3194 136.124 10.612 137.337 11.1972C138.591 11.7824 139.51 12.5348 140.179 13.4962C140.848 14.4158 141.14 15.419 141.14 16.4222C141.14 17.3 140.89 17.9688 140.346 18.4286C139.845 18.8884 139.134 19.1392 138.298 19.1392C137.42 19.1392 136.668 18.8048 136.124 18.1778C135.581 17.509 135.247 16.673 135.163 15.628C135.121 14.9592 135.163 14.374 135.205 13.9142C135.288 13.4126 135.288 12.9528 135.205 12.4512C135.079 11.9496 134.87 11.5734 134.62 11.4062C134.369 11.239 133.993 11.1554 133.533 11.1554C131.652 11.1554 130.189 11.9914 129.144 13.6216C128.099 15.2518 127.597 17.8434 127.597 21.4382C127.597 24.5732 128.182 26.9558 129.311 28.586C130.481 30.2162 132.237 31.0522 134.661 31.0522C136.124 31.0522 137.295 30.8014 138.173 30.258C139.05 29.7146 139.928 28.9622 140.764 27.9172L141.224 28.2934C140.472 30.1326 139.259 31.512 137.671 32.5152C136.166 33.4348 134.285 33.9364 132.07 33.9364Z" fill="#0B1A19"/>
<path d="M140.404 33.2258V32.766L141.114 32.5152C142.159 32.1808 142.703 31.4284 142.703 30.258V5.55421C142.703 4.92721 142.577 4.46741 142.326 4.17481C142.076 3.88221 141.658 3.63141 141.031 3.42241L140.445 3.29701V2.83721L148.889 0.830811L149.432 1.24881L149.307 7.72781V30.2998C149.307 31.5538 149.809 32.3062 150.812 32.5988L151.439 32.766V33.2258H140.404ZM157.583 33.2258L149.349 21.6472L157.918 13.747C158.336 13.3708 158.545 12.9946 158.628 12.5766C158.712 12.1586 158.461 11.866 157.834 11.657L157.04 11.448V10.9882H163.895V11.448L162.516 11.8242C161.847 12.0332 161.304 12.284 160.886 12.5766C160.468 12.8692 159.966 13.2872 159.381 13.7888L154.198 18.6376L162.474 30.1326C162.976 30.8014 163.435 31.3448 163.853 31.721C164.271 32.0972 164.857 32.3898 165.525 32.6406L165.693 32.7242V33.184H157.583V33.2258Z" fill="#0B1A19"/>
<path d="M46.3005 56.6621C45.3809 56.6621 44.5867 56.5367 43.8761 56.2441C43.1655 55.9515 42.6221 55.5335 42.2459 54.9901C41.8697 54.4467 41.6607 53.7779 41.6607 53.0255C41.6607 52.9001 41.6607 52.7747 41.6607 52.6493C41.6607 52.5239 41.7025 52.3985 41.7025 52.2731H44.4195C44.4195 52.3985 44.3777 52.5657 44.3777 52.6911C44.3777 53.2763 44.5867 53.7361 45.0047 54.0705C45.4227 54.4049 45.9661 54.5721 46.6349 54.5721C47.3873 54.5721 48.0143 54.3631 48.4323 53.9869C48.8921 53.6107 49.1011 53.0673 49.1011 52.4403C49.1011 51.9805 48.9339 51.6043 48.5995 51.3117C48.2651 50.9773 47.8471 50.7683 47.3455 50.5593C46.8439 50.3921 46.3005 50.1831 45.7571 49.9741C44.8793 49.6397 44.2105 49.2217 43.7507 48.6783C43.2909 48.1349 43.0401 47.4661 43.0401 46.7137C43.0401 45.8359 43.2491 45.0417 43.7089 44.3729C44.1687 43.7041 44.7957 43.1607 45.5899 42.8263C46.3841 42.4501 47.3037 42.2829 48.3487 42.2829C49.6027 42.2829 50.6059 42.5755 51.3583 43.2025C52.1107 43.7877 52.5287 44.6237 52.5287 45.6687C52.5287 45.7523 52.5287 45.8359 52.5287 45.9613C52.5287 46.0449 52.5287 46.1703 52.4869 46.2957H49.7699C49.7699 46.1703 49.7699 46.0867 49.7699 45.9613C49.7699 45.5433 49.6027 45.2089 49.3101 44.9163C48.9757 44.6237 48.5159 44.4565 47.9307 44.4565C47.2619 44.4565 46.7185 44.6237 46.3423 44.9999C45.9661 45.3343 45.7571 45.7941 45.7571 46.2957C45.7571 46.7137 45.8825 47.0481 46.1333 47.2989C46.3841 47.5497 46.7603 47.7587 47.2201 47.9259C47.6799 48.0931 48.1815 48.3021 48.7249 48.5111C49.3101 48.7201 49.8117 48.9709 50.2715 49.3053C50.7313 49.6397 51.1075 50.0159 51.4001 50.4757C51.6927 50.9355 51.8181 51.4789 51.8181 52.1059C51.8181 53.0255 51.5673 53.8197 51.1075 54.5303C50.6477 55.1991 49.9789 55.7425 49.1429 56.1187C48.3487 56.4531 47.3873 56.6621 46.3005 56.6621Z" fill="#0B1A19"/>
<path d="M58.9871 56.4113L61.0771 44.4983H57.0225L57.3987 42.4919H68.0577L67.7233 44.4983H63.6269L61.5369 56.4113H58.9871Z" fill="#0B1A19"/>
<path d="M75.0331 56.6621C74.1553 56.6621 73.3611 56.4949 72.6923 56.2023C71.9817 55.9097 71.4383 55.4081 71.0621 54.7811C70.6859 54.1541 70.4769 53.3599 70.4769 52.3985C70.4769 51.9805 70.5187 51.5625 70.6023 51.0609L72.1071 42.4919H74.6569L73.1521 51.0609C73.1103 51.2281 73.0685 51.3953 73.0685 51.5207C73.0685 51.6879 73.0685 51.8133 73.0685 51.9387C73.0685 52.7329 73.2775 53.2763 73.7373 53.6943C74.1971 54.0705 74.7823 54.2795 75.5765 54.2795C76.4961 54.2795 77.2485 54.0287 77.8755 53.4853C78.5025 52.9419 78.8787 52.1477 79.0877 51.0609L80.5925 42.4919H83.1423L81.6375 51.0609C81.4285 52.3149 80.9687 53.4017 80.3417 54.1959C79.7147 55.0319 78.9205 55.6171 78.0427 56.0351C77.0395 56.4531 76.0363 56.6621 75.0331 56.6621Z" fill="#0B1A19"/>
<path d="M85.7221 56.4113L88.1465 42.4919H92.9117C95.0017 42.4919 96.5483 42.9935 97.5097 44.0385C98.4711 45.0417 98.9727 46.4211 98.9727 48.1767C98.9727 49.8069 98.6383 51.2281 97.9277 52.4821C97.2171 53.7361 96.2139 54.6975 94.9599 55.4081C93.7059 56.1187 92.2011 56.4531 90.4873 56.4531H85.7221V56.4113ZM88.6063 54.2377H90.6963C91.9085 54.2377 92.9117 53.9869 93.7477 53.5271C94.5837 53.0673 95.2107 52.3567 95.6705 51.5207C96.0885 50.6429 96.3393 49.5979 96.3393 48.4275C96.3393 47.1735 96.0049 46.2539 95.3779 45.6269C94.7509 44.9999 93.7477 44.7073 92.3683 44.7073H90.2783L88.6063 54.2377Z" fill="#0B1A19"/>
<path d="M102.208 56.4113L104.675 42.5337H107.224L104.758 56.4113H102.208Z" fill="#0B1A19"/>
<path d="M116.436 56.6621C115.266 56.6621 114.221 56.4113 113.301 55.9097C112.382 55.4081 111.713 54.6975 111.169 53.7779C110.668 52.8583 110.417 51.8551 110.417 50.6847C110.417 49.5143 110.626 48.4275 111.044 47.4243C111.462 46.4211 112.047 45.5015 112.841 44.7491C113.594 43.9967 114.472 43.3697 115.517 42.9517C116.52 42.5337 117.607 42.3247 118.777 42.3247C119.947 42.3247 120.992 42.5755 121.912 43.1189C122.832 43.6205 123.5 44.3311 124.044 45.2507C124.545 46.1703 124.796 47.1735 124.796 48.3439C124.796 49.5143 124.587 50.6011 124.127 51.6461C123.709 52.6493 123.082 53.5689 122.33 54.3213C121.578 55.0737 120.658 55.7007 119.655 56.1187C118.652 56.4113 117.607 56.6621 116.436 56.6621ZM116.771 54.3631C117.523 54.3631 118.192 54.1959 118.861 53.9033C119.529 53.6107 120.073 53.1927 120.574 52.6493C121.076 52.1059 121.452 51.4789 121.745 50.7683C122.037 50.0577 122.163 49.2635 122.163 48.4693C122.163 47.2989 121.828 46.3375 121.201 45.6269C120.533 44.9163 119.655 44.5819 118.484 44.5819C117.732 44.5819 117.021 44.7491 116.394 45.0417C115.767 45.3343 115.182 45.7523 114.681 46.2957C114.179 46.8391 113.803 47.4661 113.51 48.1767C113.218 48.8873 113.092 49.6815 113.092 50.4757C113.092 51.6461 113.427 52.6075 114.095 53.3181C114.722 53.9869 115.6 54.3631 116.771 54.3631Z" fill="#0B1A19"/>
<path d="M0.494803 33.2258V32.766L1.4144 32.4316C2.0414 32.2644 2.4176 31.9718 2.6266 31.5956C2.8356 31.2194 2.9192 30.7178 2.9192 30.1326V5.88862C2.9192 5.26162 2.7938 4.80182 2.5848 4.42562C2.3758 4.04942 1.9578 3.75682 1.3308 3.54782L0.453003 3.17162V2.71182H11.739C16.337 2.71182 19.6392 3.54782 21.7292 5.21982C23.7774 6.89182 24.8224 9.10722 24.8224 11.866C24.8224 13.6216 24.4044 15.2518 23.5684 16.7148C22.7324 18.1778 21.3112 19.3482 19.3884 20.226C17.382 21.062 14.7904 21.48 11.4882 21.48H9.8998V30.0072C9.8998 31.2194 10.485 32.0136 11.6972 32.348L13.0766 32.766V33.2258H0.494803ZM9.8998 20.5604H11.6554C13.1602 20.5604 14.4142 20.3096 15.3338 19.808C16.2952 19.3064 17.0058 18.4704 17.4656 17.2164C17.9254 15.9624 18.1762 14.2486 18.1762 12.075C18.1762 9.85962 17.9254 8.14582 17.4238 6.89182C16.9222 5.67962 16.1698 4.80182 15.1666 4.34202C14.1634 3.84042 12.9512 3.63142 11.4882 3.63142H9.8998V20.5604Z" fill="#0B1A19"/>
<defs>
<linearGradient id="paint0_linear_49_66" x1="29.3469" y1="9.09695" x2="39.2073" y2="34.6753" gradientUnits="userSpaceOnUse">
<stop stop-color="#D7EE43"/>
<stop offset="0.6012" stop-color="#B3DE51"/>
<stop offset="0.9841" stop-color="#9AD25A"/>
</linearGradient>
</defs>
</svg>
